<?xml version="1.0" encoding="iso-8859-1"?>
<!-- Generator: Adobe Illustrator 20.1.0, SVG Export Plug-In . SVG Version: 6.00 Build 0)  -->
<!DOCTYPE svg PUBLIC "-//W3C//DTD SVG 1.1//EN" "http://www.w3.org/Graphics/SVG/1.1/DTD/svg11.dtd">
<svg version="1.1" id="Layer_1" xmlns="http://www.w3.org/2000/svg" xmlns:xlink="http://www.w3.org/1999/xlink" x="0px" y="0px"
	 viewBox="0 0 960 705" style="enable-background:new 0 0 960 705;" xml:space="preserve">
<rect style="fill:none;" width="960" height="705"/>
<g>
	<g id="Monkey_wrench_1_">
		<path style="fill:#7A7A79;" d="M842.781,520.544l0.232,8.845c0.132,5.041,2.173,9.77,5.692,13.977l-0.232-8.844
			C844.954,530.313,842.914,525.585,842.781,520.544z"/>
		<path style="fill:#7A7A79;" d="M664.87,652.62l0.232,8.845c-0.068-2.596,1.584-5.237,4.968-7.298
			c6.725-4.096,17.746-4.354,24.611-0.577c3.41,1.876,5.155,4.396,5.222,6.959l-0.232-8.845c-0.067-2.563-1.812-5.083-5.222-6.959
			c-6.865-3.777-17.886-3.519-24.611,0.577C666.454,647.383,664.802,650.024,664.87,652.62z"/>
		<path style="fill:#7A7A79;" d="M959.761,517.461c0.028,1.065-0.029,2.144-0.174,3.235c-1.079,8.133-7.203,15.589-16.538,21.274
			c-9.631,5.866-22.677,9.847-37.135,10.751c-10.475,0.654-20.44-0.313-29.239-2.524L710.159,663.435
			c-14.912,9.082-37.919,10.446-51.384,3.037c-6.147-3.382-9.241-8.006-9.369-12.898l0.232,8.845
			c0.129,4.892,3.222,9.516,9.369,12.898c13.465,7.409,36.472,6.045,51.384-3.037l166.516-113.238
			c8.799,2.211,18.764,3.178,29.239,2.524c14.458-0.904,27.504-4.886,37.135-10.751c9.335-5.685,15.459-13.141,16.538-21.274
			c0.145-1.091,0.202-2.17,0.174-3.235L959.761,517.461z"/>
		<path style="fill:#939393;" d="M848.473,534.521c-3.558-4.255-5.605-9.041-5.696-14.146c-0.176-9.352,6.216-17.973,16.69-24.352
			c5.448-3.318,11.999-6.029,19.307-7.923l0.495,28.555c0.109,5.336,7.658,9.489,16.869,9.281l10.51-0.254
			c4.599-0.108,8.747-1.288,11.735-3.108c2.988-1.82,4.817-4.28,4.776-6.948l-0.522-28.554c23.063,4.846,39.021,18.047,36.95,33.623
			c-1.079,8.133-7.203,15.589-16.538,21.274c-9.631,5.866-22.677,9.848-37.135,10.751c-10.475,0.654-20.44-0.313-29.239-2.524
			L710.159,663.435c-14.912,9.082-37.919,10.446-51.384,3.037c-13.465-7.408-12.28-20.779,2.632-29.861L848.473,534.521z
			 M694.703,659.003c6.725-4.096,6.611-10.48-0.254-14.257c-6.865-3.777-17.886-3.519-24.611,0.577
			c-6.725,4.096-6.611,10.48,0.254,14.257C676.957,663.357,687.978,663.098,694.703,659.003"/>
		<path id="Monkey_wrench_highlight_2_1_" style="display:none;fill:#FFFFFF;" d="M727.944,635.559c-0.829,0-1.64-0.411-2.116-1.163
			c-0.74-1.168-0.393-2.714,0.775-3.454l124.934-79.125c1.167-0.738,2.713-0.393,3.453,0.775c0.74,1.168,0.393,2.714-0.775,3.454
			l-124.934,79.125C728.865,635.434,728.402,635.559,727.944,635.559z"/>
		<path id="Monkey_wrench_highlight_1_1_" style="display:none;fill:#FFFFFF;" d="M900.698,545.056
			c-6.541,0-12.994-0.764-18.916-2.251c-1.34-0.337-2.154-1.698-1.816-3.037c0.336-1.341,1.697-2.149,3.037-1.818
			c7,1.761,14.816,2.439,22.606,1.948c10.792-0.676,20.926-3.6,28.536-8.235c7.032-4.281,11.308-9.678,12.04-15.196
			c0.182-1.37,1.447-2.338,2.809-2.152c1.37,0.182,2.333,1.44,2.151,2.81c-0.935,7.047-6.048,13.728-14.398,18.812
			c-8.291,5.05-19.239,8.23-30.827,8.955C904.179,545.002,902.435,545.056,900.698,545.056z"/>
	</g>
	<polygon style="fill:#F8F8F8;" points="362.599,70.103 575.193,192.844 575.032,249.439 362.438,126.698 	"/>
	<polygon style="fill:#B6A4A4;" points="80.747,233.897 362.599,70.103 362.438,126.698 80.587,290.492 	"/>
	<polygon style="fill:#F2EDED;" points="590.015,253.171 291.173,426.839 65.768,296.701 364.61,123.033 	"/>
	<polygon style="fill:#B6A4A4;" points="590.015,253.171 589.999,258.83 291.157,432.498 291.173,426.839 	"/>
	<polygon style="fill:#DBCECE;" points="291.173,426.839 291.157,432.498 65.752,302.361 65.768,296.701 	"/>
	<path style="fill:#B663CA;" d="M326.612,105.669c5.754-3.322,14.651-3.95,21.584-1.532l4.989,1.74
		c11.611,4.057,22.85,8.425,33.685,13.085c-9.833,0.845-18.829,3.181-26.056,6.775l-58.098,27.514l14.302,4.639l47.924,23.032
		c0.608,0.387,1.216,0.786,1.863,1.162c0.483,0.281,0.985,0.539,1.478,0.802l39.569,27.787l7.969,8.307l45.695-32.166
		c0.35-0.191,0.69-0.365,1.03-0.561c7.288-4.208,11.654-9.597,13.233-15.52c7.821,6.17,15.16,12.564,21.981,19.162l2.996,2.901
		c4.153,4.024,3.039,9.175-2.715,12.497L294.174,322.995c-1.312,0.758-3.424,0.758-4.728,0L122.73,226.11
		c-1.304-0.758-1.297-1.981,0.015-2.739L326.612,105.669z M302.656,227.52c4.189-2.419,4.211-6.336,0.049-8.754
		c-4.152-2.413-10.914-2.413-15.104,0.006c-4.179,2.413-4.201,6.33-0.049,8.743C291.714,229.933,298.476,229.933,302.656,227.52
		 M264.293,249.668c4.189-2.419,4.211-6.336,0.049-8.754c-4.152-2.413-10.914-2.413-15.104,0.006
		c-4.179,2.413-4.201,6.33-0.049,8.743C253.351,252.081,260.113,252.081,264.293,249.668 M343.186,204.119
		c4.179-2.413,4.201-6.33,0.039-8.748c-4.152-2.413-10.914-2.413-15.094,0c-4.189,2.419-4.211,6.336-0.059,8.749
		C332.234,206.538,338.997,206.538,343.186,204.119"/>
	<path style="fill:#F2EDED;" d="M328.132,195.371c-4.189,2.419-4.211,6.336-0.059,8.749c4.162,2.419,10.924,2.419,15.113,0
		c4.179-2.413,4.201-6.33,0.04-8.748C339.073,192.958,332.311,192.958,328.132,195.371z"/>
	<path style="fill:#F2EDED;" d="M249.239,240.92c-4.179,2.413-4.201,6.33-0.049,8.743c4.162,2.419,10.924,2.419,15.103,0.006
		c4.189-2.419,4.211-6.335,0.049-8.754C260.19,238.501,253.428,238.501,249.239,240.92z"/>
	<path style="fill:#F2EDED;" d="M287.601,218.771c-4.179,2.413-4.201,6.33-0.049,8.743c4.162,2.419,10.924,2.419,15.103,0.006
		c4.189-2.419,4.211-6.335,0.049-8.754C298.553,216.353,291.79,216.353,287.601,218.771z"/>
	<path style="fill:#A359B5;" d="M121.757,224.75c0,0.115,0.022,0.23,0.058,0.343c0.004,0.012,0.006,0.025,0.011,0.037
		c0.037,0.106,0.092,0.209,0.159,0.311c0.012,0.018,0.024,0.037,0.037,0.055c0.073,0.101,0.161,0.198,0.265,0.292
		c0.069,0.062,0.156,0.118,0.238,0.176c0.069,0.049,0.127,0.1,0.205,0.146l166.717,96.885l0.176,62.047l-166.717-96.885
		c-0.014-0.008-0.027-0.016-0.041-0.024c-0.063-0.038-0.108-0.082-0.165-0.123c-0.082-0.058-0.168-0.114-0.237-0.175
		c-0.007-0.006-0.017-0.011-0.023-0.017c-0.078-0.072-0.147-0.147-0.207-0.223c-0.013-0.017-0.023-0.035-0.035-0.052
		c-0.013-0.018-0.025-0.037-0.037-0.055c-0.021-0.031-0.045-0.061-0.062-0.093c-0.035-0.062-0.065-0.126-0.089-0.19
		c-0.004-0.01-0.005-0.019-0.008-0.029c-0.004-0.012-0.007-0.024-0.01-0.036c-0.013-0.041-0.027-0.082-0.035-0.123
		c-0.013-0.064-0.02-0.127-0.022-0.191c0-0.01-0.001-0.02-0.001-0.029l0,0L121.757,224.75z"/>
	<path style="fill:#6E3C7A;" d="M290.471,323.391c0.053,0.013,0.106,0.028,0.161,0.04c0.372,0.081,0.761,0.129,1.154,0.13
		c0.014,0,0.029,0,0.043,0c0.413-0.001,0.824-0.047,1.214-0.137c0.015-0.003,0.03-0.008,0.045-0.011
		c0.394-0.095,0.765-0.232,1.087-0.418l203.866-117.702c3.437-1.984,5.218-4.621,5.211-7.281l0.176,62.047
		c0.008,2.659-1.774,5.296-5.211,7.28l0,0L294.35,385.042c-0.152,0.088-0.314,0.165-0.484,0.232
		c-0.131,0.052-0.267,0.098-0.407,0.137c-0.064,0.018-0.13,0.032-0.195,0.048c-0.016,0.004-0.031,0.008-0.046,0.011
		c-0.036,0.008-0.071,0.019-0.107,0.026c-0.109,0.023-0.219,0.042-0.331,0.058c-0.107,0.015-0.215,0.027-0.324,0.036
		c-0.109,0.009-0.219,0.015-0.328,0.017c-0.041,0.001-0.082-0.001-0.123-0.001c-0.015,0-0.028,0-0.043,0
		c-0.058,0-0.117,0.001-0.175-0.001c-0.124-0.004-0.247-0.012-0.37-0.025c-0.143-0.014-0.286-0.034-0.426-0.059
		c-0.063-0.011-0.121-0.032-0.183-0.046c-0.055-0.012-0.106-0.026-0.16-0.04c-0.096-0.025-0.196-0.042-0.289-0.072
		c-0.263-0.086-0.511-0.193-0.735-0.323l-0.176-62.047C289.749,323.171,290.102,323.296,290.471,323.391z"/>
	<polygon style="fill:#B6A4A4;" points="575.193,192.844 575.032,249.439 293.181,413.233 293.341,356.638 	"/>
	<polygon style="fill:#FFFFFF;" points="293.341,356.638 293.181,413.233 80.587,290.492 80.747,233.897 	"/>
	<g>
		<path style="fill:#F7F7F7;" d="M151.583,445.293c1.496-0.864,3.918-0.864,5.403,0l235.539,136.88
			c1.486,0.863,1.478,2.266-0.018,3.13l-150.451,86.863c-1.501,0.867-3.923,0.867-5.409,0.003L1.108,535.288
			c-1.486-0.863-1.478-2.266,0.024-3.133L151.583,445.293z"/>
		<path style="fill:#E2DCDC;" d="M98.195,557.906c-1.502,0.867-1.51,2.27-0.024,3.133l4.494,2.612c1.492,0.867,3.914,0.867,5.415,0
			l96.689-55.823c1.502-0.867,1.51-2.27,0.018-3.137l-4.494-2.612c-1.486-0.863-3.908-0.863-5.409,0.004L98.195,557.906z"/>
		<path style="fill:#E2DCDC;" d="M125.93,574.023c-1.502,0.867-1.51,2.27-0.018,3.137l4.494,2.612
			c1.486,0.863,3.908,0.863,5.409-0.004l96.689-55.823c1.502-0.867,1.51-2.27,0.024-3.133l-4.494-2.612
			c-1.492-0.867-3.914-0.867-5.415,0L125.93,574.023z"/>
		<path style="fill:#E2DCDC;" d="M153.67,590.144c-1.502,0.867-1.51,2.27-0.024,3.133l4.494,2.612c1.492,0.867,3.914,0.867,5.415,0
			l96.689-55.823c1.502-0.867,1.51-2.27,0.018-3.137l-4.494-2.612c-1.486-0.863-3.908-0.863-5.409,0.004L153.67,590.144z"/>
		<path style="fill:#E2DCDC;" d="M181.404,606.261c-1.502,0.867-1.51,2.27-0.024,3.133l4.5,2.615
			c1.486,0.864,3.908,0.864,5.409-0.003l96.689-55.823c1.502-0.867,1.51-2.27,0.024-3.133l-4.5-2.615
			c-1.486-0.863-3.908-0.863-5.409,0.004L181.404,606.261z"/>
		<path style="fill:#D1C3C3;" d="M1.108,535.289L1.108,535.289l235.539,136.88c0.142,0.082,0.299,0.15,0.457,0.216
			c0.266,0.113,0.547,0.208,0.845,0.276c0.031,0.007,0.063,0.01,0.094,0.016c0.331,0.069,0.676,0.109,1.023,0.123
			c0.066,0.003,0.13,0.01,0.196,0.011c0.123,0.002,0.246-0.006,0.369-0.011c0.121-0.005,0.243-0.008,0.363-0.02
			c0.122-0.012,0.24-0.033,0.36-0.052c0.119-0.019,0.238-0.035,0.354-0.061c0.117-0.026,0.228-0.06,0.341-0.093
			c0.112-0.033,0.225-0.062,0.332-0.101c0.108-0.039,0.208-0.088,0.311-0.135c0.123-0.056,0.251-0.107,0.365-0.172l150.451-86.863
			c0.168-0.097,0.31-0.203,0.441-0.312c0.035-0.029,0.068-0.059,0.1-0.089c0.096-0.089,0.179-0.182,0.251-0.276
			c0.021-0.028,0.047-0.055,0.066-0.083c0.08-0.118,0.142-0.239,0.185-0.362c0.053-0.15,0.084-0.301,0.083-0.453l0.009,3.118
			c0,0.152-0.03,0.303-0.083,0.453c-0.003,0.008-0.002,0.017-0.005,0.025c-0.043,0.115-0.106,0.228-0.181,0.338
			c-0.019,0.028-0.045,0.055-0.066,0.083c-0.046,0.061-0.088,0.122-0.144,0.18c-0.032,0.033-0.073,0.064-0.108,0.096
			c-0.033,0.03-0.065,0.06-0.1,0.089c-0.131,0.109-0.273,0.215-0.441,0.312l-150.451,86.863c-0.039,0.022-0.078,0.044-0.118,0.065
			c-0.077,0.041-0.165,0.07-0.246,0.107c-0.103,0.046-0.203,0.095-0.311,0.134c-0.107,0.039-0.22,0.069-0.331,0.101
			c-0.113,0.033-0.225,0.068-0.342,0.094c-0.115,0.025-0.234,0.042-0.352,0.06c-0.12,0.019-0.239,0.04-0.361,0.052
			c-0.12,0.012-0.241,0.015-0.363,0.02c-0.123,0.005-0.245,0.013-0.369,0.011c-0.028-0.001-0.056,0.003-0.085,0.003
			c-0.038-0.001-0.074-0.012-0.111-0.013c-0.348-0.014-0.692-0.053-1.023-0.123c-0.023-0.005-0.048-0.004-0.071-0.009
			c-0.008-0.002-0.015-0.006-0.023-0.007c-0.298-0.068-0.578-0.163-0.845-0.276c-0.029-0.012-0.064-0.018-0.093-0.031
			c-0.126-0.057-0.248-0.119-0.363-0.186L1.117,538.406l0,0c-0.737-0.428-1.107-0.99-1.108-1.552L0,533.736
			C0.002,534.299,0.371,534.86,1.108,535.289z"/>
		<polyline style="fill:#9DB1CE;" points="80.573,543.633 64.171,534.163 60.597,536.241 76.999,545.71 80.573,543.633 		"/>
		<polyline style="fill:#9DB1CE;" points="98.867,533.002 82.465,523.532 79.126,525.473 90.132,531.827 90.085,531.854 
			72.26,529.463 68.71,531.526 85.112,540.996 88.45,539.055 77.469,532.715 77.516,532.688 95.293,535.079 98.867,533.002 		"/>
		<polyline style="fill:#9DB1CE;" points="100.007,513.338 96.292,515.497 104.15,524.284 104.103,524.311 88.932,519.774 
			85.24,521.92 106.932,528.315 110.977,525.964 100.007,513.338 		"/>
		<path style="fill:#9DB1CE;" d="M113.91,514.828c-2.864-1.654-4.434-3.949-1.212-5.821c3.222-1.872,7.213-0.984,10.077,0.669
			c2.745,1.585,4.292,3.894,1.07,5.767C120.624,517.315,116.656,516.413,113.91,514.828 M126.349,507.599
			c-4.876-2.815-11.625-3.28-16.681-0.342c-5.055,2.938-4.231,6.846,0.644,9.661c4.757,2.747,11.507,3.211,16.562,0.273
			C131.931,514.253,131.106,510.345,126.349,507.599"/>
		<polyline style="fill:#9DB1CE;" points="141.898,507.995 125.496,498.525 121.898,500.616 138.3,510.086 141.898,507.995 		"/>
		<path style="fill:#9DB1CE;" d="M154.578,493.305l-3.48,2.022c1.895,1.394,2.187,3.006,0.001,4.277
			c-3.222,1.872-7.19,0.97-9.935-0.615c-2.864-1.654-4.434-3.949-1.212-5.821c1.787-1.038,4.593-1.216,6.462-0.41l3.457-2.009
			c-4.21-1.94-9.35-1.421-12.948,0.67c-5.056,2.938-4.231,6.846,0.644,9.661c4.757,2.747,11.507,3.211,16.562,0.273
			C158.126,499.031,158.32,495.874,154.578,493.305"/>
		<polyline style="fill:#9DB1CE;" points="177.099,487.539 174.069,485.789 165.275,490.9 161.251,488.577 169.152,483.986 
			166.359,482.373 158.459,486.965 154.932,484.929 163.538,479.927 160.509,478.178 148.305,485.27 164.707,494.74 
			177.099,487.539 		"/>
	</g>
	<g>
		<path style="fill:#F7F7F7;" d="M244.258,445.293c1.496-0.864,3.918-0.864,5.403,0L485.2,582.172
			c1.486,0.863,1.478,2.266-0.018,3.13l-150.451,86.863c-1.501,0.867-3.923,0.867-5.409,0.003L93.784,535.288
			c-1.486-0.863-1.478-2.266,0.024-3.133L244.258,445.293z"/>
		<path style="fill:#E2DCDC;" d="M190.87,557.906c-1.502,0.867-1.51,2.27-0.024,3.133l4.494,2.612c1.492,0.867,3.914,0.867,5.415,0
			l96.689-55.823c1.502-0.867,1.51-2.27,0.018-3.137l-4.494-2.612c-1.486-0.863-3.908-0.863-5.409,0.004L190.87,557.906z"/>
		<path style="fill:#E2DCDC;" d="M218.605,574.023c-1.502,0.867-1.51,2.27-0.018,3.137l4.494,2.612
			c1.486,0.863,3.908,0.863,5.409-0.004l96.689-55.823c1.502-0.867,1.51-2.27,0.024-3.133l-4.494-2.612
			c-1.492-0.867-3.914-0.867-5.415,0L218.605,574.023z"/>
		<path style="fill:#E2DCDC;" d="M246.345,590.144c-1.502,0.867-1.51,2.27-0.024,3.133l4.494,2.612c1.492,0.867,3.914,0.867,5.415,0
			l96.689-55.823c1.502-0.867,1.51-2.27,0.018-3.137l-4.494-2.612c-1.486-0.863-3.908-0.863-5.409,0.004L246.345,590.144z"/>
		<path style="fill:#E2DCDC;" d="M274.079,606.261c-1.502,0.867-1.51,2.27-0.024,3.133l4.5,2.615
			c1.486,0.864,3.908,0.864,5.409-0.003l96.689-55.823c1.502-0.867,1.51-2.27,0.024-3.133l-4.5-2.615
			c-1.486-0.863-3.908-0.863-5.409,0.004L274.079,606.261z"/>
		<path style="fill:#D1C3C3;" d="M93.784,535.289L93.784,535.289l235.539,136.88c0.142,0.082,0.299,0.15,0.457,0.216
			c0.266,0.113,0.547,0.208,0.845,0.276c0.031,0.007,0.063,0.01,0.094,0.016c0.331,0.069,0.676,0.109,1.023,0.123
			c0.066,0.003,0.13,0.01,0.196,0.011c0.123,0.002,0.246-0.006,0.369-0.011c0.121-0.005,0.243-0.008,0.363-0.02
			c0.122-0.012,0.24-0.033,0.36-0.052c0.119-0.019,0.238-0.035,0.354-0.061c0.117-0.026,0.228-0.06,0.341-0.093
			c0.112-0.033,0.225-0.062,0.332-0.101c0.108-0.039,0.208-0.088,0.311-0.135c0.123-0.056,0.251-0.107,0.365-0.172l150.451-86.863
			c0.168-0.097,0.31-0.203,0.441-0.312c0.035-0.029,0.068-0.059,0.1-0.089c0.096-0.089,0.179-0.182,0.251-0.276
			c0.021-0.028,0.047-0.055,0.066-0.083c0.08-0.118,0.142-0.239,0.185-0.362c0.053-0.15,0.084-0.301,0.083-0.453l0.009,3.118
			c0,0.152-0.03,0.303-0.083,0.453c-0.003,0.008-0.002,0.017-0.005,0.025c-0.043,0.115-0.106,0.228-0.181,0.338
			c-0.019,0.028-0.045,0.055-0.066,0.083c-0.046,0.061-0.088,0.122-0.144,0.18c-0.032,0.033-0.073,0.064-0.108,0.096
			c-0.033,0.03-0.065,0.06-0.1,0.089c-0.131,0.109-0.273,0.215-0.441,0.312L334.74,675.283c-0.039,0.022-0.078,0.044-0.118,0.065
			c-0.077,0.041-0.165,0.07-0.246,0.107c-0.103,0.046-0.203,0.095-0.311,0.134c-0.107,0.039-0.22,0.069-0.331,0.101
			c-0.113,0.033-0.225,0.068-0.342,0.094c-0.116,0.025-0.234,0.042-0.352,0.06c-0.12,0.019-0.239,0.04-0.361,0.052
			c-0.12,0.012-0.241,0.015-0.363,0.02c-0.123,0.005-0.245,0.013-0.369,0.011c-0.028-0.001-0.056,0.003-0.085,0.003
			c-0.038-0.001-0.074-0.012-0.111-0.013c-0.348-0.014-0.692-0.053-1.023-0.123c-0.023-0.005-0.048-0.004-0.071-0.009
			c-0.008-0.002-0.015-0.006-0.023-0.007c-0.298-0.068-0.578-0.163-0.845-0.276c-0.029-0.012-0.064-0.018-0.093-0.031
			c-0.126-0.057-0.248-0.119-0.363-0.186L93.792,538.406l0,0c-0.737-0.428-1.107-0.99-1.108-1.552l-0.009-3.118
			C92.677,534.299,93.046,534.86,93.784,535.289z"/>
		<polyline style="fill:#9DB1CE;" points="173.248,543.633 156.846,534.163 153.272,536.241 169.674,545.71 173.248,543.633 		"/>
		<polyline style="fill:#9DB1CE;" points="191.542,533.002 175.141,523.532 171.801,525.473 182.807,531.827 182.76,531.854 
			164.935,529.463 161.385,531.526 177.787,540.996 181.126,539.055 170.144,532.715 170.191,532.688 187.968,535.079 
			191.542,533.002 		"/>
		<polyline style="fill:#9DB1CE;" points="192.682,513.338 188.967,515.497 196.825,524.284 196.778,524.311 181.607,519.774 
			177.915,521.92 199.608,528.315 203.652,525.964 192.682,513.338 		"/>
		<path style="fill:#9DB1CE;" d="M206.585,514.828c-2.864-1.654-4.434-3.949-1.212-5.821c3.222-1.872,7.213-0.984,10.077,0.669
			c2.745,1.585,4.292,3.894,1.07,5.767C213.299,517.315,209.331,516.413,206.585,514.828 M219.024,507.599
			c-4.876-2.815-11.625-3.28-16.681-0.342c-5.055,2.938-4.231,6.846,0.644,9.661c4.757,2.747,11.507,3.211,16.562,0.273
			C224.606,514.253,223.782,510.345,219.024,507.599"/>
		<polyline style="fill:#9DB1CE;" points="234.573,507.995 218.171,498.525 214.573,500.616 230.975,510.086 234.573,507.995 		"/>
		<path style="fill:#9DB1CE;" d="M247.253,493.305l-3.48,2.022c1.895,1.394,2.187,3.006,0.001,4.277
			c-3.222,1.872-7.19,0.97-9.935-0.615c-2.864-1.654-4.434-3.949-1.212-5.821c1.787-1.038,4.593-1.216,6.462-0.41l3.457-2.009
			c-4.21-1.94-9.35-1.421-12.948,0.67c-5.056,2.938-4.231,6.846,0.644,9.661c4.757,2.747,11.507,3.211,16.562,0.273
			C250.801,499.031,250.995,495.874,247.253,493.305"/>
		<polyline style="fill:#9DB1CE;" points="269.774,487.539 266.744,485.789 257.95,490.9 253.926,488.577 261.827,483.986 
			259.034,482.373 251.134,486.965 247.607,484.929 256.213,479.927 253.184,478.178 240.98,485.27 257.382,494.74 269.774,487.539 
					"/>
	</g>
	<g>
		<path style="fill:#F7F7F7;" d="M336.933,445.293c1.496-0.864,3.918-0.864,5.403,0l235.539,136.88
			c1.486,0.863,1.478,2.266-0.018,3.13l-150.451,86.863c-1.501,0.867-3.923,0.867-5.409,0.003l-235.539-136.88
			c-1.486-0.863-1.478-2.266,0.024-3.133L336.933,445.293z"/>
		<path style="fill:#E2DCDC;" d="M283.545,557.906c-1.502,0.867-1.51,2.27-0.024,3.133l4.494,2.612c1.492,0.867,3.914,0.867,5.415,0
			l96.689-55.823c1.502-0.867,1.51-2.27,0.018-3.137l-4.494-2.612c-1.486-0.863-3.908-0.863-5.409,0.004L283.545,557.906z"/>
		<path style="fill:#E2DCDC;" d="M311.28,574.023c-1.502,0.867-1.51,2.27-0.018,3.137l4.494,2.612
			c1.486,0.863,3.908,0.863,5.409-0.004l96.689-55.823c1.502-0.867,1.51-2.27,0.024-3.133l-4.494-2.612
			c-1.492-0.867-3.914-0.867-5.415,0L311.28,574.023z"/>
		<path style="fill:#E2DCDC;" d="M339.02,590.144c-1.502,0.867-1.51,2.27-0.024,3.133l4.494,2.612c1.492,0.867,3.914,0.867,5.415,0
			l96.689-55.823c1.502-0.867,1.51-2.27,0.018-3.137l-4.494-2.612c-1.486-0.863-3.908-0.863-5.409,0.004L339.02,590.144z"/>
		<path style="fill:#E2DCDC;" d="M366.754,606.261c-1.502,0.867-1.51,2.27-0.024,3.133l4.5,2.615
			c1.486,0.864,3.908,0.864,5.409-0.003l96.689-55.823c1.502-0.867,1.51-2.27,0.024-3.133l-4.5-2.615
			c-1.486-0.863-3.908-0.863-5.409,0.004L366.754,606.261z"/>
		<path style="fill:#D1C3C3;" d="M186.459,535.289L186.459,535.289l235.539,136.88c0.142,0.082,0.299,0.15,0.457,0.216
			c0.266,0.113,0.547,0.208,0.845,0.276c0.031,0.007,0.063,0.01,0.094,0.016c0.331,0.069,0.676,0.109,1.023,0.123
			c0.066,0.003,0.13,0.01,0.196,0.011c0.123,0.002,0.246-0.006,0.369-0.011c0.121-0.005,0.243-0.008,0.363-0.02
			c0.122-0.012,0.24-0.033,0.36-0.052c0.119-0.019,0.238-0.035,0.354-0.061c0.117-0.026,0.228-0.06,0.341-0.093
			c0.112-0.033,0.225-0.062,0.332-0.101c0.108-0.039,0.208-0.088,0.311-0.135c0.123-0.056,0.251-0.107,0.365-0.172l150.451-86.863
			c0.168-0.097,0.31-0.203,0.441-0.312c0.035-0.029,0.068-0.059,0.1-0.089c0.096-0.089,0.179-0.182,0.251-0.276
			c0.021-0.028,0.047-0.055,0.066-0.083c0.08-0.118,0.142-0.239,0.185-0.362c0.053-0.15,0.084-0.301,0.083-0.453l0.009,3.118
			c0,0.152-0.03,0.303-0.083,0.453c-0.003,0.008-0.002,0.017-0.005,0.025c-0.043,0.115-0.106,0.228-0.181,0.338
			c-0.019,0.028-0.045,0.055-0.066,0.083c-0.046,0.061-0.088,0.122-0.144,0.18c-0.032,0.033-0.073,0.064-0.108,0.096
			c-0.033,0.03-0.065,0.06-0.1,0.089c-0.131,0.109-0.273,0.215-0.441,0.312l-150.451,86.863c-0.039,0.022-0.078,0.044-0.118,0.065
			c-0.077,0.041-0.165,0.07-0.246,0.107c-0.103,0.046-0.203,0.095-0.311,0.134c-0.107,0.039-0.22,0.069-0.331,0.101
			c-0.113,0.033-0.225,0.068-0.342,0.094c-0.115,0.025-0.234,0.042-0.352,0.06c-0.12,0.019-0.239,0.04-0.361,0.052
			c-0.12,0.012-0.241,0.015-0.363,0.02c-0.123,0.005-0.245,0.013-0.369,0.011c-0.028-0.001-0.056,0.003-0.085,0.003
			c-0.038-0.001-0.074-0.012-0.111-0.013c-0.348-0.014-0.692-0.053-1.023-0.123c-0.023-0.005-0.048-0.004-0.071-0.009
			c-0.008-0.002-0.015-0.006-0.023-0.007c-0.298-0.068-0.578-0.163-0.845-0.276c-0.029-0.012-0.064-0.018-0.093-0.031
			c-0.126-0.057-0.248-0.119-0.363-0.186l-235.539-136.88l0,0c-0.737-0.428-1.107-0.99-1.108-1.552l-0.009-3.118
			C185.352,534.299,185.721,534.86,186.459,535.289z"/>
		<polyline style="fill:#9DB1CE;" points="265.923,543.633 249.521,534.163 245.947,536.241 262.349,545.71 265.923,543.633 		"/>
		<polyline style="fill:#9DB1CE;" points="284.217,533.002 267.816,523.532 264.476,525.473 275.482,531.827 275.435,531.854 
			257.61,529.463 254.06,531.526 270.462,540.996 273.801,539.055 262.819,532.715 262.866,532.688 280.643,535.079 
			284.217,533.002 		"/>
		<polyline style="fill:#9DB1CE;" points="285.357,513.338 281.642,515.497 289.5,524.284 289.453,524.311 274.282,519.774 
			270.59,521.92 292.283,528.315 296.327,525.964 285.357,513.338 		"/>
		<path style="fill:#9DB1CE;" d="M299.26,514.828c-2.864-1.654-4.434-3.949-1.212-5.821c3.222-1.872,7.213-0.984,10.077,0.669
			c2.745,1.585,4.292,3.894,1.07,5.767S302.006,516.413,299.26,514.828 M311.699,507.599c-4.876-2.815-11.625-3.28-16.681-0.342
			c-5.055,2.938-4.231,6.846,0.644,9.661c4.757,2.747,11.507,3.211,16.562,0.273C317.281,514.253,316.457,510.345,311.699,507.599"
			/>
		<polyline style="fill:#9DB1CE;" points="327.248,507.995 310.846,498.525 307.248,500.616 323.65,510.086 327.248,507.995 		"/>
		<path style="fill:#9DB1CE;" d="M339.928,493.305l-3.48,2.022c1.895,1.394,2.187,3.006,0.001,4.277
			c-3.222,1.872-7.19,0.97-9.935-0.615c-2.864-1.654-4.434-3.949-1.212-5.821c1.787-1.038,4.593-1.216,6.462-0.41l3.457-2.009
			c-4.21-1.94-9.35-1.421-12.948,0.67c-5.056,2.938-4.231,6.846,0.644,9.661c4.757,2.747,11.507,3.211,16.562,0.273
			C343.476,499.031,343.67,495.874,339.928,493.305"/>
		<polyline style="fill:#9DB1CE;" points="362.449,487.539 359.419,485.789 350.625,490.9 346.601,488.577 354.502,483.986 
			351.71,482.373 343.809,486.965 340.282,484.929 348.888,479.927 345.859,478.178 333.655,485.27 350.057,494.74 362.449,487.539 
					"/>
	</g>
	<g>
		<g>
			<g style="enable-background:new    ;">
				<g>
					<polygon style="fill:#6CCA6C;" points="397.777,530.537 467.543,571.08 537.76,530.54 467.994,489.997 					"/>
				</g>
				<g>
					<polygon style="fill:#60B560;" points="397.777,530.537 397.813,543.171 467.578,583.715 467.543,571.08 					"/>
				</g>
				<g>
					<polygon style="fill:#437E43;" points="467.543,571.08 467.578,583.715 537.795,543.175 537.76,530.54 					"/>
				</g>
			</g>
		</g>
		<g>
			<g style="enable-background:new    ;">
				<g>
					<polygon style="fill:#CF5DD2;" points="397.779,518.008 467.54,558.548 537.757,518.009 467.996,477.468 					"/>
				</g>
				<g>
					<polygon style="fill:#B953BC;" points="397.779,518.008 397.815,530.643 467.576,571.183 467.54,558.548 					"/>
				</g>
				<g>
					<polygon style="fill:#813A83;" points="467.54,558.548 467.576,571.183 537.793,530.643 537.757,518.009 					"/>
				</g>
			</g>
		</g>
	</g>
	<g>
		<path style="fill-rule:evenodd;clip-rule:evenodd;fill:#FFC200;" d="M620.92,582.885l-184.817,23.065l1.556,12.469l184.817-23.065
			c0.929-0.116,1.588-0.963,1.472-1.892l-1.136-9.106C622.696,583.428,621.849,582.769,620.92,582.885z"/>
		<polygon style="fill-rule:evenodd;clip-rule:evenodd;fill:#C68D66;" points="418.386,614.492 427.244,610.221 436.103,605.95 
			436.881,612.184 437.659,618.419 428.023,616.456 		"/>
		<polygon style="fill-rule:evenodd;clip-rule:evenodd;fill:#222222;" points="423.322,612.112 418.386,614.492 423.756,615.586 		
			"/>
		<path style="fill-rule:evenodd;clip-rule:evenodd;fill:#D06A2D;" d="M616.367,583.453l-4.342,0.542l1.556,12.469l4.342-0.542
			c3.443-0.43,5.886-3.569,5.457-7.013C622.95,585.466,619.811,583.023,616.367,583.453z"/>
	</g>
	<g id="Laptop_1_">
		<path style="fill:#454545;" d="M901.037,404.266c4.908,2.834,4.934,7.435,0.048,10.275L706.857,527.413
			c-4.876,2.834-12.821,2.834-17.729,0l-243.959-140.85c-4.918-2.84-4.934-7.435-0.058-10.269l194.227-112.873
			c4.886-2.84,12.82-2.845,17.739-0.006L901.037,404.266z"/>
		<path style="fill:#515151;" d="M904.098,424.039c0.08-0.146,0.147-0.293,0.211-0.44c0.041-0.094,0.085-0.187,0.119-0.282
			c0.059-0.163,0.1-0.328,0.139-0.492c0.019-0.081,0.046-0.16,0.06-0.241c0.044-0.246,0.07-0.492,0.071-0.739l0.035-12.409
			c-0.001,0.247-0.027,0.494-0.071,0.74c-0.014,0.08-0.041,0.16-0.06,0.239c-0.039,0.165-0.081,0.33-0.14,0.494
			c-0.034,0.094-0.078,0.187-0.119,0.281c-0.064,0.148-0.131,0.295-0.211,0.441c-0.053,0.097-0.114,0.193-0.175,0.29
			c-0.089,0.14-0.183,0.279-0.287,0.416c-0.082,0.108-0.166,0.215-0.257,0.321c-0.071,0.082-0.144,0.165-0.22,0.246
			c-0.142,0.151-0.292,0.3-0.454,0.446c-0.029,0.026-0.055,0.052-0.084,0.078c-0.204,0.178-0.425,0.351-0.659,0.521
			c-0.036,0.026-0.071,0.052-0.108,0.078c-0.252,0.178-0.518,0.351-0.804,0.517L706.858,527.414c-0.603,0.35-1.255,0.657-1.94,0.92
			c-0.014,0.005-0.029,0.011-0.044,0.017c-0.68,0.259-1.394,0.476-2.131,0.65c-0.016,0.004-0.033,0.008-0.049,0.011
			c-0.731,0.171-1.485,0.299-2.25,0.386c-0.03,0.003-0.059,0.007-0.089,0.01c-0.737,0.081-1.485,0.12-2.233,0.124
			c-0.087,0-0.173-0.001-0.26-0.002c-0.495-0.003-0.987-0.045-1.478-0.082c-0.348-0.026-0.698-0.046-1.042-0.089
			c-0.43-0.054-0.848-0.137-1.268-0.217c-0.331-0.063-0.666-0.116-0.989-0.196c-0.682-0.168-1.35-0.362-1.982-0.603l-0.002-0.001
			c-0.697-0.266-1.358-0.576-1.971-0.93l-243.959-140.85c-0.303-0.175-0.586-0.357-0.852-0.544c-0.015-0.01-0.029-0.021-0.043-0.031
			c-0.249-0.178-0.481-0.36-0.697-0.547c-0.017-0.015-0.034-0.029-0.051-0.044c-0.219-0.193-0.422-0.391-0.606-0.593
			c-0.009-0.01-0.017-0.019-0.026-0.029c-0.177-0.196-0.337-0.396-0.481-0.599c-0.014-0.02-0.029-0.041-0.043-0.061
			c-0.137-0.198-0.258-0.399-0.364-0.602c-0.011-0.02-0.022-0.041-0.033-0.061c-0.101-0.2-0.184-0.403-0.255-0.606
			c-0.01-0.03-0.022-0.06-0.032-0.09c-0.064-0.199-0.113-0.398-0.148-0.599c-0.01-0.054-0.016-0.108-0.023-0.162
			c-0.028-0.199-0.049-0.399-0.048-0.599l-0.035,12.409c0,0.123,0.005,0.247,0.015,0.37c0.007,0.077,0.022,0.153,0.033,0.229
			c0.008,0.054,0.014,0.108,0.023,0.162c0.006,0.034,0.008,0.067,0.014,0.1c0.029,0.141,0.064,0.282,0.107,0.423
			c0.008,0.025,0.019,0.05,0.027,0.076c0.01,0.03,0.021,0.06,0.032,0.09c0.025,0.071,0.047,0.142,0.075,0.212
			c0.045,0.113,0.095,0.225,0.149,0.336c0.009,0.019,0.021,0.038,0.031,0.058c0.01,0.021,0.022,0.041,0.033,0.062
			c0.035,0.067,0.069,0.135,0.107,0.202c0.058,0.1,0.119,0.199,0.184,0.297c0.023,0.034,0.048,0.068,0.072,0.102
			c0.014,0.021,0.029,0.042,0.044,0.063c0.029,0.04,0.055,0.081,0.085,0.12c0.068,0.091,0.14,0.182,0.215,0.272
			c0.058,0.069,0.119,0.137,0.18,0.206c0.009,0.01,0.017,0.02,0.026,0.029c0.008,0.009,0.016,0.018,0.024,0.027
			c0.079,0.086,0.161,0.17,0.246,0.255c0.085,0.084,0.173,0.166,0.264,0.249c0.024,0.021,0.049,0.042,0.073,0.063
			c0.016,0.014,0.033,0.028,0.049,0.042c0.053,0.046,0.104,0.092,0.159,0.137c0.098,0.081,0.199,0.161,0.304,0.24
			c0.076,0.057,0.155,0.114,0.234,0.17c0.015,0.011,0.03,0.022,0.045,0.033c0.016,0.011,0.031,0.023,0.046,0.034
			c0.116,0.081,0.235,0.16,0.357,0.238c0.124,0.08,0.252,0.158,0.384,0.235c0.021,0.012,0.042,0.025,0.064,0.037l243.959,140.85
			c0.121,0.07,0.243,0.138,0.367,0.204c0.151,0.08,0.304,0.158,0.46,0.234c0.173,0.084,0.35,0.165,0.529,0.242
			c0.201,0.087,0.405,0.17,0.612,0.249l0.002,0.001l0.003,0.001c0.242,0.092,0.486,0.179,0.734,0.26
			c0.333,0.109,0.672,0.208,1.018,0.298c0.075,0.02,0.156,0.027,0.231,0.046c0.323,0.08,0.657,0.133,0.989,0.196
			c0.421,0.08,0.837,0.163,1.268,0.217c0.345,0.043,0.693,0.063,1.042,0.089c0.308,0.023,0.612,0.069,0.922,0.079
			c0.185,0.006,0.37,0.002,0.556,0.003c0.088,0.001,0.174,0.002,0.262,0.002c0.109-0.001,0.217,0.004,0.326,0.002
			c0.293-0.006,0.585-0.018,0.877-0.036c0.25-0.015,0.499-0.035,0.748-0.059c0.094-0.009,0.188-0.021,0.282-0.031
			c0.03-0.003,0.059-0.007,0.089-0.01c0.095-0.011,0.19-0.02,0.284-0.032c0.198-0.025,0.395-0.054,0.591-0.085
			c0.188-0.03,0.376-0.062,0.562-0.097c0.172-0.033,0.344-0.067,0.514-0.104c0.1-0.022,0.199-0.046,0.298-0.069
			c0.017-0.004,0.034-0.008,0.051-0.012c0.049-0.011,0.099-0.022,0.148-0.034c0.158-0.039,0.315-0.079,0.47-0.122
			c0.153-0.042,0.305-0.086,0.456-0.132c0.148-0.045,0.294-0.092,0.44-0.14c0.144-0.048,0.288-0.099,0.429-0.151
			c0.064-0.023,0.126-0.048,0.189-0.072c0.014-0.005,0.028-0.011,0.041-0.016c0.063-0.024,0.126-0.047,0.189-0.072
			c0.139-0.056,0.277-0.113,0.414-0.173c0.138-0.06,0.273-0.122,0.408-0.186c0.138-0.066,0.274-0.133,0.408-0.202
			c0.137-0.071,0.272-0.144,0.404-0.219c0.04-0.023,0.08-0.046,0.119-0.068L901.05,426.95c0.1-0.058,0.198-0.117,0.294-0.177
			c0.138-0.085,0.271-0.172,0.4-0.261c0.038-0.026,0.073-0.053,0.11-0.08c0.036-0.026,0.071-0.052,0.107-0.077
			c0.068-0.049,0.139-0.098,0.205-0.148c0.148-0.113,0.289-0.228,0.424-0.345c0.011-0.009,0.02-0.019,0.031-0.029
			c0.029-0.026,0.055-0.052,0.083-0.078c0.112-0.101,0.225-0.202,0.328-0.305c0.046-0.046,0.083-0.095,0.127-0.142
			c0.076-0.081,0.149-0.163,0.219-0.245c0.049-0.057,0.107-0.113,0.153-0.171c0.039-0.049,0.066-0.101,0.104-0.15
			c0.104-0.137,0.199-0.276,0.287-0.416C903.984,424.232,904.045,424.136,904.098,424.039z"/>
		<path style="fill:#454545;" d="M654.297,26.132c-1.239-0.715-2.419-1.106-3.492-1.201c-0.268-0.024-0.53-0.029-0.784-0.016
			c-0.762,0.039-1.457,0.24-2.064,0.593l-10.729,6.235c1.619-0.941,3.863-0.806,6.34,0.624l10.245,5.915l10.729-6.235
			L654.297,26.132z"/>
		<polygon style="fill:#B7C5F1;" points="662.858,82.603 870.061,369.518 662.384,249.616 		"/>
		<path style="fill:#4B4B4B;" d="M906.432,408.018c0.033-0.333,0.051-0.678,0.052-1.039l0.006-2.089l-10.729,6.235l-0.006,2.089
			c-0.001,0.361-0.02,0.706-0.052,1.039c-0.011,0.114-0.033,0.219-0.048,0.329c-0.029,0.212-0.056,0.425-0.097,0.624
			c-0.009,0.044-0.023,0.083-0.033,0.126c-0.118,0.528-0.276,1.016-0.48,1.449c-0.007,0.016-0.017,0.028-0.024,0.044
			c-0.158,0.327-0.344,0.619-0.547,0.889c-0.044,0.059-0.087,0.119-0.133,0.175c-0.207,0.251-0.431,0.478-0.676,0.672
			c-0.161,0.128-0.328,0.248-0.504,0.351l0.001,0l-0.001,0l10.729-6.235c0.163-0.095,0.32-0.2,0.47-0.317
			c0.013-0.01,0.022-0.024,0.035-0.034c0.245-0.195,0.469-0.421,0.676-0.673c0.02-0.024,0.045-0.04,0.064-0.064
			c0.026-0.033,0.043-0.078,0.069-0.112c0.203-0.27,0.389-0.562,0.547-0.889c0.006-0.013,0.015-0.022,0.021-0.034
			c0.001-0.003,0.002-0.007,0.003-0.01c0.204-0.434,0.362-0.922,0.48-1.449c0.006-0.027,0.019-0.047,0.025-0.074
			c0.004-0.017,0.005-0.036,0.008-0.052c0.041-0.2,0.069-0.413,0.097-0.625C906.399,408.235,906.421,408.131,906.432,408.018z"/>
		<path style="fill:#525252;" d="M866.48,367.45l29.199,45.194c0.05-0.486,0.081-0.983,0.082-1.519l-0.006,2.089
			c-0.016,5.64-4.014,7.918-8.932,5.079l-243.95-140.845c-4.918-2.839-8.89-9.719-8.874-15.359l0.637-224.642
			c0.016-5.651,4.014-7.919,8.932-5.079l10.245,5.915L694.1,100.64l-31.243-18.038l-0.473,167.013L866.48,367.45z"/>
		<polygon style="fill:#D2DCF4;" points="870.534,202.505 870.061,369.518 662.858,82.603 694.101,100.641 		"/>
		<path style="fill:#616161;" d="M907.021,182.472c-0.021-0.219-0.063-0.438-0.091-0.658c-0.055-0.433-0.108-0.866-0.188-1.299
			c-0.049-0.262-0.117-0.52-0.175-0.78c-0.086-0.389-0.169-0.778-0.275-1.164c-0.075-0.274-0.167-0.542-0.252-0.813
			c-0.114-0.365-0.224-0.729-0.354-1.087c-0.023-0.063-0.039-0.128-0.062-0.19c-0.044-0.12-0.105-0.228-0.151-0.347
			c-0.241-0.619-0.503-1.22-0.787-1.807c-0.055-0.114-0.097-0.24-0.154-0.353c-0.048-0.094-0.104-0.178-0.153-0.272
			c-0.172-0.331-0.355-0.647-0.541-0.963c-0.099-0.169-0.187-0.351-0.289-0.515c-0.046-0.074-0.098-0.139-0.145-0.212
			c-0.142-0.222-0.291-0.431-0.44-0.643c-0.125-0.179-0.242-0.371-0.371-0.543c-0.116-0.155-0.234-0.307-0.354-0.456
			c-0.209-0.26-0.422-0.511-0.639-0.75c-0.021-0.024-0.045-0.042-0.067-0.065c-0.335-0.365-0.679-0.704-1.031-1.015
			c-0.021-0.019-0.041-0.043-0.062-0.061c-0.156-0.135-0.316-0.254-0.475-0.378c-0.094-0.074-0.187-0.155-0.282-0.224
			c-0.284-0.208-0.572-0.399-0.864-0.568L664.542,32.047l-10.729,6.235l234.279,135.261c0.292,0.169,0.58,0.36,0.864,0.567
			c0.096,0.07,0.189,0.151,0.283,0.225c0.18,0.141,0.36,0.283,0.537,0.439c0.352,0.311,0.696,0.65,1.031,1.014
			c0.24,0.261,0.477,0.53,0.706,0.816c0.251,0.313,0.487,0.658,0.724,0.998c0.149,0.213,0.299,0.424,0.442,0.646
			c0.149,0.233,0.289,0.48,0.431,0.723c0.185,0.316,0.369,0.634,0.542,0.965c0.107,0.204,0.205,0.416,0.307,0.625
			c0.284,0.586,0.547,1.189,0.787,1.807c0.07,0.179,0.147,0.354,0.213,0.536c0.13,0.358,0.241,0.724,0.355,1.09
			c0.084,0.27,0.176,0.538,0.251,0.811c0.106,0.386,0.189,0.776,0.275,1.166c0.057,0.26,0.126,0.517,0.175,0.778
			c0.081,0.434,0.134,0.868,0.189,1.302c0.028,0.219,0.07,0.438,0.091,0.656c0.062,0.652,0.096,1.301,0.094,1.942l-0.625,220.477
			l10.729-6.235l0.625-220.476C907.117,183.773,907.083,183.124,907.021,182.472z"/>
		<path style="fill:#494949;" d="M893.591,179.499c0.229,0.38,0.447,0.766,0.651,1.158c0.078,0.15,0.155,0.299,0.23,0.45
			c0.3,0.61,0.576,1.229,0.812,1.856c0.074,0.195,0.135,0.392,0.202,0.588c0.086,0.253,0.175,0.506,0.25,0.76
			c0.062,0.21,0.11,0.42,0.163,0.63c0.063,0.248,0.129,0.497,0.18,0.744c0.044,0.213,0.074,0.424,0.109,0.636
			c0.039,0.235,0.079,0.47,0.105,0.702c0.06,0.522,0.099,1.04,0.098,1.547l10.729-6.235c0.001-0.507-0.037-1.024-0.098-1.547
			c-0.005-0.047-0.003-0.092-0.009-0.138c-0.023-0.187-0.066-0.376-0.097-0.564c-0.035-0.212-0.065-0.423-0.109-0.636
			c-0.051-0.246-0.116-0.493-0.179-0.741c-0.054-0.212-0.102-0.423-0.165-0.635c-0.074-0.251-0.162-0.501-0.247-0.752
			c-0.059-0.173-0.107-0.347-0.171-0.519c-0.01-0.026-0.024-0.052-0.034-0.078c-0.236-0.627-0.511-1.245-0.812-1.855
			c-0.031-0.062-0.052-0.128-0.083-0.19c-0.045-0.088-0.1-0.172-0.146-0.259c-0.205-0.393-0.423-0.779-0.652-1.159
			c-0.056-0.093-0.102-0.192-0.16-0.284c-0.025-0.04-0.055-0.077-0.08-0.118c-0.3-0.474-0.614-0.938-0.947-1.384
			c-0.004-0.005-0.007-0.01-0.01-0.015c-0.283-0.377-0.577-0.743-0.881-1.095l-10.729,6.235c0.308,0.356,0.605,0.727,0.891,1.109
			c0.333,0.446,0.647,0.91,0.947,1.384C893.434,179.23,893.51,179.366,893.591,179.499z"/>
		<path style="fill:#737373;" d="M888.091,173.544c1.22,0.704,2.378,1.761,3.421,3.061c2.886,3.598,4.888,9.056,4.874,14.044
			l-0.625,220.476c-0.002,0.536-0.032,1.033-0.082,1.519L866.48,367.45l3.581,2.067l0.473-167.013L694.101,100.641l-40.288-62.358
			L888.091,173.544z"/>
	</g>
	<path style="fill:#88379B;" d="M290.311,158.29l74.629,22.631c0.608,0.387,1.216,0.786,1.863,1.162
		c0.483,0.281,0.985,0.539,1.478,0.802l47.835,54.679l51.126-54.573l-90.776-5.033c-0.435-0.241-0.869-0.483-1.304-0.735
		c-0.579-0.337-1.139-0.685-15.783-5.623l-56.437-18.307L290.311,158.29z"/>
	<path style="fill:#88379B;" d="M281.13,173.39c-2.262-7.594-8.877-5.627-8.877-5.627l-43.401,5.767l-1.229,2.37l5.817,23.751
		c0,0,26.524-8.326,38.804-13.012C282.937,182.559,282.476,177.909,281.13,173.39z M275.432,180.247
		c-2.813,0.375-5.727,1.162-8.627-0.563c-2.894-1.72-3.686-4.09-0.767-5.814c2.913-1.72,7.625-1.72,10.519,0
		C279.457,175.596,278.784,179.8,275.432,180.247z"/>
	<path style="fill:#FFFFFF;" d="M281.125,174.512c-1.571-6.348-5.318-8.142-12.07-8.329c-6.751-0.188-40.018,7.063-40.018,7.063
		l5.13,18.692l40.978-9.673C275.145,182.264,282.696,180.86,281.125,174.512z M275.777,177.551c-2.857,1.649-7.468,1.649-10.305,0
		c-2.831-1.645-2.816-4.317,0.04-5.966c2.85-1.645,7.461-1.645,10.292,0C278.642,173.234,278.627,175.905,275.777,177.551z"/>
	<path style="fill:#662276;" d="M273.743,176.474c-0.878,0-1.656-0.624-1.821-1.519c-0.185-1.006,0.481-1.973,1.488-2.158
		l80.6-14.828c1.014-0.181,1.973,0.481,2.158,1.488s-0.481,1.973-1.488,2.158l-80.6,14.828
		C273.967,176.465,273.853,176.474,273.743,176.474z"/>
	<path style="fill:#B6A4A4;" d="M376.112,127.229c-8.009,4.624-11.436,11.122-10.633,18.097c0.145-0.192,0.295-0.383,0.449-0.572
		c1.708-2.094,4.003-4.012,6.891-5.68c17.728-10.235,51.088-7.491,74.524,6.128c12.47,7.247,19.597,16.12,20.88,24.375
		c0.037,0.241,0.07,0.48,0.098,0.72c8.111-10.69,1.569-25.74-17.695-36.936C427.2,119.749,393.831,117,376.112,127.229z"/>
	<path style="fill:#54405A;" d="M372.819,139.076c-2.888,1.667-5.183,3.585-6.891,5.68c0.665,8.543,7.823,17.9,20.85,25.471
		c23.204,13.485,56.225,16.201,73.768,6.072c3.364-1.942,5.915-4.217,7.676-6.719c-1.283-8.255-8.411-17.129-20.88-24.375
		C423.907,131.584,390.548,128.84,372.819,139.076z"/>
	<path style="fill:#FFFFFF;" d="M375.162,177.223c-0.579-0.337-1.139-0.685-1.709-1.027l-56.437-18.307l-14.301-4.639l58.098-27.513
		l0.056,0.303c7.171-3.897,16.167-6.232,26-7.078c20.936-1.8,45.664,3.155,64.639,14.183c19.029,11.059,27.505,25.446,24.269,37.588
		c-1.579,5.923-5.945,11.312-13.233,15.52c-0.34,0.196-0.68,0.37-1.03,0.561l-45.695,32.166l-7.97-8.307l-31.384-32.714
		C376.031,177.717,375.597,177.476,375.162,177.223z M460.547,176.298c3.364-1.942,5.915-4.217,7.676-6.719
		c0.037,0.241,0.07,0.481,0.098,0.72c8.111-10.69,1.569-25.74-17.695-36.936c-23.426-13.614-56.795-16.364-74.514-6.134
		c-8.009,4.624-11.436,11.122-10.633,18.097c0.145-0.192,0.295-0.382,0.449-0.572c0.665,8.543,7.823,17.9,20.85,25.471
		C409.983,183.71,443.003,186.427,460.547,176.298"/>
</g>
</svg>
