<?xml version="1.0" encoding="iso-8859-1"?>
<!-- Generator: Adobe Illustrator 20.1.0, SVG Export Plug-In . SVG Version: 6.00 Build 0)  -->
<!DOCTYPE svg PUBLIC "-//W3C//DTD SVG 1.1//EN" "http://www.w3.org/Graphics/SVG/1.1/DTD/svg11.dtd">
<svg version="1.1" id="Layer_1" xmlns="http://www.w3.org/2000/svg" xmlns:xlink="http://www.w3.org/1999/xlink" x="0px" y="0px"
	 viewBox="0 0 960 705" style="enable-background:new 0 0 960 705;" xml:space="preserve">
<rect style="fill:none;" width="960" height="705"/>
<g>
	<path style="fill:#F2F2F2;" d="M678.591,596.958l165.046-95.914l19.801,11.432c2.777,1.603,2.792,4.191,0.041,5.79l-155.092,90.13
		c-2.75,1.598-7.218,1.598-9.995-0.005L678.591,596.958z"/>
	<path style="fill:#F2F2F2;" d="M598.674,550.818c-2.777-1.603-2.792-4.191-0.041-5.79l155.092-90.13
		c2.75-1.598,7.218-1.598,9.995,0.005l59.86,34.56l-165.046,95.914L598.674,550.818z"/>
	<polygon style="fill:#2E2E2E;" points="843.637,501.043 678.591,596.958 658.535,585.378 823.581,489.464 	"/>
	<path style="fill:#DADADA;" d="M865.41,516.12c-0.008,0.026-0.013,0.052-0.022,0.077c-0.078,0.223-0.194,0.442-0.337,0.657
		c-0.026,0.039-0.05,0.078-0.078,0.116c-0.154,0.213-0.341,0.419-0.56,0.617c-0.144,0.13-0.328,0.248-0.5,0.37
		c-0.145,0.103-0.269,0.212-0.434,0.308l-155.092,90.13c-0.423,0.246-0.899,0.442-1.391,0.612c-0.174,0.06-0.353,0.112-0.533,0.163
		c-0.231,0.065-0.465,0.126-0.705,0.175c-0.283,0.058-0.568,0.111-0.86,0.148c-0.07,0.009-0.138,0.021-0.208,0.029
		c-0.393,0.042-0.791,0.063-1.189,0.066c-0.062,0.001-0.123,0.001-0.185,0.001c-0.394-0.003-0.787-0.025-1.176-0.066
		c-0.058-0.006-0.115-0.012-0.173-0.019c-0.386-0.046-0.766-0.112-1.137-0.196c-0.068-0.015-0.135-0.033-0.202-0.049
		c-0.338-0.084-0.666-0.184-0.984-0.3c-0.056-0.021-0.116-0.036-0.172-0.058c-0.38-0.147-0.744-0.316-1.08-0.51l-99.718-57.572
		c-1.399-0.807-2.097-1.865-2.094-2.919l-0.013,4.489c-0.003,1.055,0.695,2.112,2.094,2.919l99.718,57.572
		c0.321,0.185,0.665,0.349,1.026,0.492c0.018,0.007,0.038,0.012,0.056,0.019c0.055,0.021,0.113,0.037,0.168,0.057
		c0.209,0.076,0.418,0.153,0.637,0.215c0.114,0.032,0.232,0.057,0.348,0.085c0.068,0.017,0.135,0.034,0.204,0.05
		c0.063,0.014,0.123,0.033,0.187,0.046c0.231,0.048,0.465,0.088,0.701,0.122c0.082,0.012,0.165,0.018,0.247,0.028
		c0.059,0.007,0.117,0.014,0.177,0.02c0.088,0.009,0.175,0.022,0.263,0.029c0.231,0.019,0.463,0.031,0.695,0.037
		c0.072,0.002,0.143-0.002,0.215-0.001c0.063,0.001,0.125,0,0.188-0.001c0.106-0.001,0.213,0.002,0.319-0.002
		c0.262-0.009,0.523-0.026,0.782-0.052c0.029-0.003,0.058-0.009,0.088-0.012c0.069-0.008,0.136-0.02,0.205-0.029
		c0.203-0.026,0.407-0.048,0.606-0.084c0.088-0.016,0.168-0.046,0.255-0.064c0.241-0.049,0.473-0.11,0.705-0.175
		c0.123-0.035,0.255-0.054,0.376-0.094c0.057-0.018,0.102-0.05,0.158-0.069c0.493-0.17,0.967-0.365,1.391-0.612l155.092-90.13
		c0.029-0.017,0.058-0.034,0.086-0.051c0.134-0.081,0.229-0.174,0.35-0.259c0.172-0.122,0.354-0.239,0.498-0.369
		c0.014-0.012,0.034-0.023,0.048-0.035c0.165-0.152,0.311-0.31,0.438-0.471c0.029-0.036,0.048-0.074,0.075-0.111
		c0.028-0.038,0.052-0.077,0.078-0.116c0.043-0.065,0.094-0.129,0.131-0.195c0.074-0.132,0.137-0.266,0.188-0.401
		c0.008-0.02,0.01-0.041,0.018-0.061c0.009-0.026,0.014-0.052,0.022-0.077c0.027-0.086,0.057-0.172,0.074-0.258
		c0.027-0.134,0.042-0.269,0.046-0.405c0.001-0.021,0.001-0.041,0.001-0.062l0.013-4.488
		C865.531,515.638,865.485,515.88,865.41,516.12z"/>
	<g id="Book">
		<polygon style="fill:#AB4F4F;" points="602.077,321.5 602.067,324.829 374.073,457.326 374.082,453.996 		"/>
		<polygon style="fill:#F0ECEC;" points="582.49,270.488 582.339,323.757 372.412,445.753 372.563,392.485 		"/>
		<polygon style="fill:#AB4F4F;" points="602.077,256.152 602.067,259.481 374.073,391.978 374.082,388.648 		"/>
		<polygon style="fill:#773737;" points="371.556,390.121 371.361,458.857 62.248,280.391 62.443,211.655 		"/>
		<polygon style="fill:#AB4F4F;" points="371.556,390.121 374.435,388.448 374.24,457.184 371.361,458.857 		"/>
		<polygon style="fill:#BE5858;" points="602.077,256.152 292.964,77.686 64.969,210.182 64.973,210.184 62.443,211.655 
			371.556,390.121 374.435,388.448 374.431,388.446 		"/>
		<polygon style="fill:#BE5858;" points="582.339,323.757 374.275,444.67 374.249,453.899 602.077,321.5 582.378,310.127 		"/>
	</g>
	<path style="fill:#755514;" d="M32.313,444.964l0.038-13.43c0.016-0.823,0.022-1.785,0.035-2.746
		c-6.428-1.038-11.335-6.242-11.335-12.503c0-7.003,6.138-12.702,13.682-12.702h0.23c0.189-1.036,0.38-2.04,0.568-2.944
		c0.33-1.591,0.84-3.697,1.245-5.271c0.362-1.406,0.917-3.26,1.312-4.657c0.444-1.568,1.192-3.611,1.715-5.154
		c0.288-0.849,0.699-1.914,1.151-3.025h-6.222C15.581,382.531,0,397.673,0,416.284c0,17.837,14.321,32.449,32.371,33.638
		C32.311,447.681,32.312,445.964,32.313,444.964z"/>
	<path style="fill:#D19309;" d="M242.923,432.134c-0.044,15.503-10.236,30.982-30.597,42.821
		c-41.013,23.822-107.615,23.818-148.889,0.001c-20.76-11.992-31.129-27.719-31.085-43.422l-0.038,13.43
		c-0.005,2.904-0.02,11.742,1.523,22.423c1.108,7.668,2.564,14.085,4.721,20.807c2.102,6.551,4.925,12.565,6.211,14.817
		c1.302,2.281,3.023,5.343,4.548,7.482c0.885,1.24,2.079,2.886,3.038,4.071c1.045,1.292,2.476,2.989,3.637,4.178
		c2.351,2.406,5.728,5.37,8.303,7.535c1.337,1.125,3.299,2.396,4.718,3.416c2.238,1.609,8.014,4.941,10.977,6.3
		c1.773,0.813,4.107,1.974,5.93,2.671c3.619,1.383,8.474,3.168,12.192,4.256c1.907,0.558,4.463,1.268,6.408,1.675
		c1.944,0.407,4.527,0.994,6.481,1.353c1.973,0.362,4.62,0.757,6.605,1.052c1.991,0.296,4.66,0.613,6.668,0.748
		c4.034,0.27,9.42,0.597,13.463,0.597c2.024,0,4.723-0.059,6.745-0.149c2.017-0.089,4.7-0.313,6.714-0.448
		c2.012-0.135,4.677-0.516,6.68-0.75c2.005-0.234,4.659-0.696,6.644-1.062c1.95-0.36,4.528-0.949,6.468-1.356
		c1.922-0.403,4.434-1.16,6.332-1.662c1.929-0.511,4.451-1.368,6.334-2.03c1.813-0.637,4.191-1.596,5.981-2.296
		c0.21-0.082,5.205-2.052,11.645-5.761c3.006-1.731,6.917-4.251,9.586-6.467c1.308-1.086,3.106-2.474,4.33-3.653
		c2.049-1.972,4.69-4.701,6.569-6.835c2.716-3.084,5.915-8.075,6.79-9.604c1.441-2.518,3.177-5.981,4.419-8.603
		c0.716-1.51,1.506-3.598,2.102-5.16c0.583-1.526,1.307-3.583,1.77-5.149c0.832-2.819,1.867-6.602,2.543-9.463
		c0.374-1.584,0.82-3.709,1.084-5.315c0.249-1.517,0.609-3.536,0.828-5.057c0.238-1.65,0.515-3.856,0.694-5.514
		c0.182-1.687,0.406-3.939,0.498-5.633c0.175-3.241,0.328-7.567,0.391-10.812v-0.001L242.923,432.134z"/>
	<path style="fill:#333333;" d="M195.863,372.426c-32.28-18.637-84.454-18.637-116.524,0.001
		c-9.741,5.661-16.497,12.39-20.291,19.537c3.842,7.277,10.708,14.138,20.67,19.889c32.28,18.637,84.449,18.64,116.524,0
		c9.757-5.67,16.505-12.416,20.297-19.579C212.695,385.011,205.808,378.168,195.863,372.426z"/>
	<path style="fill:#FFB600;" d="M216.813,391.792c-3.74,7.343-10.593,14.263-20.57,20.061c-32.076,18.64-84.245,18.637-116.524,0
		c-10.248-5.917-17.248-13.003-21.02-20.513c-17.526,11.454-26.306,25.813-26.347,40.193c-0.044,15.703,10.325,31.43,31.085,43.422
		c0.575,0.332,1.173,0.642,1.758,0.965c40.552,22.371,104.053,22.512,144.642,0.409c0.834-0.454,1.675-0.901,2.489-1.374
		c20.361-11.839,30.553-27.318,30.597-42.821v0C242.964,417.741,234.25,403.331,216.813,391.792z"/>
	<path style="fill:#D19309;" d="M242.626,421.848c-0.08-1.705-0.31-3.971-0.45-5.673c-0.18-2.193-0.956-8.079-1.44-10.665
		c-1.142-6.088-1.602-8.388-3.533-14.942c-1.497-5.082-3.913-10.681-4.184-11.252c-0.625-1.315-1.403-3.098-2.102-4.375
		c-1.213-2.216-2.907-5.132-4.267-7.261c-1.62-2.536-4.109-5.711-6.133-7.938c-1.503-1.654-3.616-3.759-5.251-5.282
		c-1.246-1.16-3.014-2.588-4.343-3.651c-2.759-2.207-6.778-4.698-9.777-6.567c-4.869-2.797-8.798-4.539-11.677-5.744
		c-6.375-2.668-12.346-4.32-12.404-4.336c-1.901-0.512-4.432-1.209-6.348-1.658c-1.939-0.455-4.533-1.041-6.499-1.356
		c-1.976-0.317-4.598-0.825-6.587-1.048c-2-0.225-4.662-0.568-6.667-0.747c-2.013-0.18-4.7-0.399-6.72-0.448
		c-2.023-0.049-4.721-0.149-6.745-0.149c-2.024,0-4.722,0.105-6.746,0.149c-2.018,0.045-4.7,0.312-6.715,0.448
		c-2.021,0.136-8.557,0.899-13.324,1.812c-3.875,0.742-8.985,2.012-12.8,3.018c-1.929,0.509-4.436,1.414-6.334,2.029
		c-2.627,0.853-8.709,3.333-12.11,5.092c-4.419,2.285-6.853,3.577-11.896,7.053c-2.808,1.935-6.349,4.826-8.792,7.205
		c-1.182,1.151-2.755,2.695-3.828,3.948c-1.673,1.951-3.8,4.643-5.316,6.719c-2.34,3.205-4.23,6.824-5.749,9.733
		c-0.941,1.801-3.146,6.816-4.087,9.594c-0.523,1.543-1.271,3.586-1.715,5.154c-0.396,1.397-0.95,3.252-1.312,4.657
		c-0.405,1.573-0.915,3.68-1.245,5.271c-0.619,2.98-1.281,6.987-1.746,9.995c-0.256,1.652-0.485,3.871-0.656,5.534
		c-0.305,2.965-0.52,6.935-0.671,9.912c-0.083,1.634-0.075,3.818-0.107,5.454c0.041-14.38,8.821-28.739,26.347-40.193
		c-1.624-3.235-2.616-6.549-3.028-9.882c1.384-10.965,9.236-21.696,23.668-30.083c32.07-18.637,84.245-18.638,116.524-0.001
		c14.663,8.466,22.653,19.323,24.052,30.398c-0.416,3.382-1.433,6.743-3.101,10.019c17.437,11.538,26.151,25.949,26.11,40.341
		C242.885,429.047,242.771,424.932,242.626,421.848z"/>
	<path style="fill:#755514;" d="M219.182,378.056c-0.057-0.216-0.111-0.432-0.172-0.648c-0.156-0.547-0.328-1.093-0.517-1.638
		c-0.074-0.213-0.157-0.424-0.236-0.637c-0.636-1.711-1.437-3.404-2.4-5.074c-0.174-0.301-0.349-0.603-0.534-0.903
		c-0.277-0.451-0.564-0.9-0.865-1.347c-0.242-0.359-0.501-0.714-0.759-1.07c-0.4-0.553-0.814-1.103-1.252-1.648
		c-0.423-0.528-0.854-1.054-1.312-1.574c-0.293-0.333-0.605-0.661-0.912-0.99c-0.413-0.443-0.836-0.883-1.275-1.319
		c-0.306-0.305-0.613-0.609-0.932-0.91c-0.599-0.566-1.222-1.127-1.866-1.682c-0.181-0.156-0.349-0.316-0.533-0.471
		c-0.83-0.697-1.705-1.382-2.607-2.059c-0.289-0.217-0.59-0.43-0.886-0.645c-0.695-0.504-1.41-1.001-2.145-1.492
		c-0.306-0.204-0.609-0.409-0.922-0.611c-1.031-0.666-2.088-1.323-3.195-1.962c-32.28-18.637-84.454-18.637-116.524,0.001
		c-1.089,0.633-2.127,1.283-3.142,1.941c-0.308,0.2-0.606,0.403-0.907,0.606c-0.72,0.483-1.419,0.973-2.1,1.469
		c-0.295,0.215-0.595,0.429-0.883,0.647c-0.883,0.667-1.74,1.342-2.554,2.029c-0.181,0.153-0.345,0.31-0.522,0.463
		c-0.634,0.549-1.247,1.103-1.837,1.664c-0.319,0.303-0.626,0.61-0.932,0.916c-0.422,0.422-0.829,0.847-1.226,1.275
		c-0.311,0.335-0.626,0.669-0.922,1.007c-0.408,0.466-0.79,0.938-1.17,1.41c-0.484,0.602-0.944,1.208-1.381,1.819
		c-0.236,0.329-0.475,0.657-0.698,0.988c-0.307,0.457-0.598,0.916-0.88,1.377c-0.168,0.275-0.329,0.552-0.488,0.828
		c-0.977,1.699-1.788,3.423-2.426,5.164c-0.059,0.162-0.123,0.323-0.18,0.485c-0.197,0.567-0.375,1.135-0.536,1.705
		c-0.049,0.173-0.093,0.347-0.139,0.52c-0.33,1.252-0.585,2.509-0.745,3.77c0.412,3.333,1.403,6.647,3.028,9.882
		c0.105,0.209,0.239,0.415,0.349,0.624c3.794-7.147,10.55-13.877,20.291-19.538c32.07-18.637,84.245-18.637,116.524-0.001
		c9.945,5.742,16.832,12.585,20.677,19.848c-1.065,2.011-2.363,3.99-3.896,5.921c1.662-2.085,3.059-4.224,4.169-6.403
		c1.669-3.276,2.686-6.637,3.101-10.019C219.758,380.53,219.505,379.29,219.182,378.056z"/>
	<g id="iPad">
		<path style="fill:#747474;" d="M955.865,348.966c0.378,0.218,0.721,0.447,1.038,0.69l-51.169,6.206L785.82,286.63L603.677,392.48
			l-70.612,8.566L779.953,257.57c4.846-2.816,12.73-2.816,17.608,0L955.865,348.966z"/>
		<path style="fill:#535353;" d="M956.656,349.423c4.439,2.563,4.462,6.723,0.052,9.286L696.853,509.72
			c-4.418,2.568-11.593,2.563-16.031,0l-159.885-92.31c-4.438-2.562-4.47-6.718-0.052-9.286l12.181-7.079l70.618-8.562
			l119.908,69.229l182.143-105.85l51.169-6.206c-0.317-0.243-0.66-0.472-1.037-0.69L956.656,349.423z M618.727,453.193
			c7.356,4.247,19.244,4.242,26.552-0.005c7.3-4.242,7.27-11.128-0.086-15.375c-7.356-4.247-19.244-4.242-26.544,0
			C611.341,442.06,611.371,448.946,618.727,453.193"/>
		<path style="fill:#747474;" d="M645.193,437.813c7.356,4.247,7.386,11.133,0.087,15.375c-7.308,4.247-19.196,4.252-26.552,0.005
			c-7.356-4.247-7.386-11.133-0.078-15.38C625.949,433.571,637.837,433.566,645.193,437.813z"/>
		<polygon style="fill:#D3DDF5;" points="905.734,355.863 603.677,392.48 723.591,461.712 603.683,392.483 785.82,286.63 		"/>
		<polygon style="fill:#B8C6F2;" points="905.734,355.863 723.591,461.712 603.677,392.48 		"/>
		<path style="fill:#494949;" d="M960,354.096c0,0.207-0.018,0.415-0.052,0.621c-0.011,0.065-0.034,0.13-0.048,0.195
			c-0.031,0.141-0.059,0.282-0.105,0.421c-0.027,0.081-0.068,0.16-0.1,0.24c-0.049,0.123-0.093,0.246-0.154,0.367
			c-0.044,0.088-0.104,0.174-0.155,0.261c-0.064,0.109-0.123,0.219-0.197,0.327c-0.209,0.303-0.47,0.595-0.76,0.88
			c-0.054,0.053-0.105,0.107-0.163,0.16c-0.251,0.231-0.523,0.457-0.829,0.672c-0.229,0.161-0.47,0.318-0.729,0.469L696.853,509.72
			c-0.529,0.307-1.102,0.573-1.7,0.807c-0.127,0.049-0.263,0.086-0.393,0.132c-0.427,0.152-0.867,0.286-1.318,0.402
			c-0.394,0.102-0.801,0.178-1.209,0.252c-0.346,0.063-0.687,0.135-1.04,0.179c-0.143,0.018-0.287,0.031-0.431,0.045
			c-0.602,0.06-1.21,0.098-1.819,0.101c-0.041,0-0.082,0.004-0.123,0.004c-0.641-0.001-1.28-0.043-1.913-0.107
			c-0.148-0.015-0.295-0.031-0.442-0.05c-0.369-0.046-0.727-0.12-1.088-0.187c-0.409-0.076-0.815-0.159-1.21-0.263
			c-0.41-0.108-0.811-0.228-1.201-0.366c-0.161-0.057-0.328-0.107-0.485-0.168c-0.582-0.229-1.142-0.485-1.658-0.783l-159.885-92.31
			c-0.284-0.164-0.55-0.335-0.798-0.511c-0.021-0.015-0.037-0.031-0.058-0.045c-0.285-0.206-0.54-0.422-0.776-0.642
			c-0.063-0.059-0.122-0.118-0.182-0.178c-0.283-0.284-0.535-0.575-0.739-0.875c-0.073-0.107-0.134-0.216-0.196-0.325
			c-0.049-0.085-0.104-0.168-0.146-0.253c-0.061-0.121-0.106-0.244-0.155-0.367c-0.032-0.08-0.071-0.16-0.097-0.241
			c-0.045-0.137-0.073-0.275-0.102-0.413c-0.015-0.068-0.038-0.136-0.048-0.204c-0.033-0.207-0.05-0.414-0.05-0.621l-0.032,11.221
			c-0.001,0.207,0.017,0.414,0.05,0.621c0.011,0.068,0.034,0.135,0.048,0.203c0.03,0.138,0.058,0.277,0.103,0.414
			c0.026,0.081,0.065,0.16,0.097,0.24c0.048,0.123,0.094,0.246,0.155,0.367c0.043,0.086,0.098,0.17,0.147,0.255
			c0.056,0.097,0.104,0.195,0.168,0.291c0.007,0.011,0.02,0.021,0.027,0.033c0.204,0.3,0.455,0.591,0.738,0.875
			c0.03,0.03,0.047,0.062,0.078,0.092c0.031,0.03,0.074,0.057,0.106,0.087c0.235,0.219,0.489,0.434,0.773,0.639
			c0.017,0.013,0.03,0.027,0.048,0.039c0.004,0.003,0.009,0.006,0.013,0.009c0.248,0.176,0.513,0.347,0.797,0.511l159.885,92.31
			c0.082,0.048,0.166,0.094,0.25,0.14c0.387,0.211,0.794,0.402,1.216,0.576c0.062,0.025,0.13,0.042,0.193,0.067
			c0.157,0.062,0.322,0.111,0.483,0.168c0.269,0.095,0.53,0.2,0.808,0.281c0.127,0.037,0.266,0.052,0.394,0.086
			c0.397,0.104,0.8,0.186,1.211,0.263c0.209,0.039,0.406,0.102,0.618,0.134c0.155,0.023,0.313,0.033,0.469,0.053
			c0.148,0.018,0.295,0.035,0.445,0.05c0.633,0.064,1.271,0.106,1.911,0.107c0.042,0,0.082-0.004,0.124-0.004
			c0.609-0.003,1.215-0.041,1.816-0.101c0.146-0.014,0.29-0.028,0.435-0.046c0.122-0.015,0.246-0.021,0.368-0.039
			c0.229-0.033,0.443-0.098,0.669-0.14c0.41-0.074,0.815-0.15,1.211-0.253c0.107-0.028,0.223-0.039,0.33-0.069
			c0.341-0.096,0.664-0.218,0.991-0.335c0.129-0.046,0.263-0.082,0.389-0.131c0.037-0.014,0.077-0.024,0.114-0.038
			c0.425-0.17,0.834-0.359,1.224-0.567c0.123-0.065,0.244-0.133,0.363-0.202L956.676,369.93c0.249-0.145,0.484-0.294,0.704-0.448
			c0.009-0.006,0.016-0.014,0.025-0.02c0.306-0.215,0.578-0.441,0.829-0.672c0.025-0.023,0.058-0.043,0.082-0.066
			c0.032-0.03,0.05-0.063,0.081-0.093c0.29-0.285,0.55-0.577,0.759-0.88c0.003-0.004,0.008-0.008,0.011-0.013
			c0.074-0.108,0.131-0.219,0.195-0.328c0.048-0.082,0.104-0.164,0.146-0.247c0.061-0.12,0.105-0.242,0.153-0.364
			c0.033-0.081,0.074-0.162,0.101-0.244c0.045-0.136,0.073-0.274,0.103-0.411c0.015-0.068,0.039-0.136,0.05-0.204
			c0.034-0.206,0.052-0.413,0.052-0.62L960,354.098v0V354.096z"/>
	</g>
	<g id="Glasses">
		<path style="fill:#595959;" d="M461.73,486.114c-0.469-0.753-11.927-18.398-51.453-15.096
			c-31.552,2.628-87.816,6.385-104.376,7.479c-15.246-1.57-25.98,9.168-26.036,28.874c-0.059,20.822,14.94,46.391,33.51,57.112
			c23.422,13.522,42.475,3.189,42.549-23.082l-0.009,3.026l2.024-16.686c0.416-3.113,2.888-4.405,5.902-2.693l0.127,0.073
			c3.014,1.77,5.471,5.907,5.868,9.489l1.922,18.964l0.009-3.026c-0.074,26.271,18.85,58.531,42.28,72.058
			c18.561,10.716,33.656,2.522,33.715-18.3c0.011-3.79-0.386-7.706-1.122-11.672c-1.231-7.925-7.689-49.671-10.784-72.501
			c-2.296-16.941-7.273-27.557-14.791-31.554c-6.158-3.276-11.444-0.843-12.026-0.554c-1.97,0.973-2.816,3.377-1.842,5.346
			c0.973,1.971,3.323,2.796,5.291,1.824c0.095-0.042,2.34-0.996,4.989,0.491c2.844,1.596,7.988,7.033,10.494,25.517
			c1.463,10.794,3.674,25.786,5.731,39.457c-7.48-11.852-17.364-22.144-28.22-28.412l-81.391-46.991
			c24.266-1.638,62.741-4.302,86.847-6.31c34.216-2.839,43.97,11.274,44.036,11.372c0.754,1.211,2.053,1.877,3.382,1.877
			c0.718,0,1.444-0.193,2.098-0.601C462.319,490.433,462.891,487.98,461.73,486.114z M402.012,541.033
			c4.74,2.737,9.403,6.423,13.777,10.845c1.987,2.009,3.828,3.855,5.572,5.678l0.006-0.003c0.329,0.344,0.647,0.686,0.968,1.029
			c0.181,0.193,0.368,0.388,0.546,0.581c0.602,0.652,1.187,1.308,1.763,1.97c0.191,0.219,0.379,0.443,0.567,0.665
			c0.447,0.526,0.888,1.061,1.32,1.603c0.163,0.204,0.33,0.407,0.491,0.614c0.563,0.722,1.115,1.463,1.655,2.229
			c0.119,0.169,0.236,0.349,0.354,0.521c0.44,0.639,0.874,1.299,1.301,1.978c0.15,0.238,0.3,0.478,0.448,0.721
			c0.527,0.867,1.048,1.758,1.557,2.705c4.268,7.943,7.22,20.094,7.443,21.53l0.016,0.102l0.019,0.101
			c0.677,3.642,1.015,7.135,1.006,10.384c-0.014,4.837-1.153,16.089-11.407,16.089c-3.503,0-7.617-1.307-11.899-3.779
			c-10.307-5.951-20.052-16.162-27.438-28.752c-0.751-1.28-1.473-2.589-2.176-3.909c-0.05-0.094-0.101-0.187-0.151-0.282
			c-6.108-11.552-10.254-24.292-10.432-33.086c-0.127-6.273-0.585-16.723-0.585-16.723c-0.405-3.655-2.046-7.391-4.406-10.373
			L402.012,541.033z M362.063,517.4c-0.257-0.018-0.514-0.053-0.771-0.053c-5.279,0-9.487,3.896-10.232,9.475l-0.006,0.042
			l-0.005,0.042c0,0-0.474,12.658-0.677,14.476c-2.096,18.758-12.744,22.105-17.599,22.105c-4.74,0-10.248-1.734-15.929-5.013
			c-0.998-0.576-1.986-1.208-2.962-1.884c-0.355-0.246-0.7-0.527-1.052-0.785c-0.614-0.451-1.23-0.895-1.833-1.382
			c-0.428-0.346-0.843-0.725-1.265-1.088c-0.51-0.439-1.024-0.868-1.524-1.331c-0.459-0.425-0.903-0.879-1.354-1.324
			c-0.445-0.439-0.893-0.868-1.328-1.324c-0.47-0.492-0.923-1.009-1.381-1.52c-0.395-0.441-0.794-0.875-1.18-1.329
			c-0.467-0.55-0.916-1.119-1.369-1.687c-0.355-0.446-0.713-0.886-1.059-1.342c-0.452-0.595-0.885-1.206-1.32-1.817
			c-0.323-0.455-0.649-0.906-0.962-1.369c-0.426-0.629-0.834-1.268-1.241-1.91c-0.194-0.307-0.403-0.603-0.593-0.912l0.016-0.01
			c-5.904-9.615-9.662-20.535-9.635-30.069c0.028-9.976,2.867-15.502,6.306-18.534c0.679-0.599,1.467-1.144,2.33-1.625
			c4.982-2.777,11.108-2.521,16.083,0.269L362.063,517.4z"/>
		<path style="fill:#BDCCF9;" d="M316.844,558.473c5.681,3.28,11.189,5.013,15.929,5.013c4.855,0,15.504-3.347,17.599-22.105
			c0.203-1.818,0.677-14.476,0.677-14.476l0.005-0.042l0.005-0.042c0.745-5.579,4.953-9.475,10.232-9.475
			c0.257,0,0.514,0.035,0.771,0.054l-16.913-10.005l-48.728,30.074C301.825,546.268,309.038,553.966,316.844,558.473z"/>
		<path style="fill:#D9E3FC;" d="M345.15,507.394l16.913,10.005l-50.542-29.9c-4.974-2.79-11.101-3.045-16.083-0.269
			c-0.863,0.481-1.651,1.026-2.33,1.625c-3.439,3.032-6.278,8.559-6.306,18.534c-0.027,9.534,3.732,20.454,9.635,30.069
			L345.15,507.394z"/>
		<path style="fill:#D9E3FC;" d="M385.697,579.568l35.664-22.011c-1.744-1.823-3.585-3.669-5.572-5.678
			c-4.374-4.422-9.037-8.108-13.777-10.845l-29.685-17.561c2.359,2.982,4.001,6.717,4.406,10.373c0,0,0.458,10.449,0.585,16.723
			c0.178,8.794,4.324,21.534,10.432,33.086C387.04,582.305,386.353,580.94,385.697,579.568z"/>
		<path style="fill:#BDCCF9;" d="M390.078,587.844c7.387,12.59,17.131,22.801,27.438,28.752c4.282,2.472,8.397,3.779,11.899,3.779
			c10.254,0,11.393-11.251,11.407-16.089c0.009-3.249-0.329-6.742-1.006-10.384l-0.019-0.101l-0.016-0.102
			c-0.223-1.436-3.175-13.588-7.443-21.53c-3.218-5.987-6.776-10.229-10.972-14.616l-35.67,22.015
			C387.043,582.383,388.507,585.167,390.078,587.844z"/>
	</g>
</g>
</svg>
